<svg width="420" height="120" viewBox="0 0 420 120" fill="none" xmlns="http://www.w3.org/2000/svg">
  <defs>
    <linearGradient id="flame" x1="24" y1="16" x2="72" y2="88" gradientUnits="userSpaceOnUse">
      <stop stop-color="#FF9A3C"/>
      <stop offset="1" stop-color="#FF5D1F"/>
    </linearGradient>
    <linearGradient id="leaf" x1="36" y1="14" x2="84" y2="54" gradientUnits="userSpaceOnUse">
      <stop stop-color="#67E58A"/>
      <stop offset="1" stop-color="#2FAE5B"/>
    </linearGradient>
  </defs>
  <rect x="4" y="10" width="100" height="100" rx="26" fill="#141414"/>
  <path d="M54 82C73 82 88 66.8 88 48C71.6 48.8 58.2 58.8 54 72C49.8 58.8 36.4 48.8 20 48C20 66.8 35 82 54 82Z" fill="url(#flame)"/>
  <path d="M54 44C67.6 44 78 34.8 78 22C66.4 22.4 57 29.2 54 38.4C51 29.2 41.6 22.4 30 22C30 34.8 40.4 44 54 44Z" fill="url(#leaf)"/>
  <text x="122" y="58" fill="#FFF7EC" font-size="40" font-weight="700" font-family="'Playfair Display', serif">Pocket Kitchen</text>
  <text x="124" y="86" fill="#FFB36D" font-size="16" letter-spacing="2" font-weight="600" font-family="'DM Sans', sans-serif">HEALTHY FOOD AT POCKET PRICE</text>
</svg>
